<svg xmlns="http://www.w3.org/2000/svg" version="1.1" xmlns:xlink="http://www.w3.org/1999/xlink" xmlns:svgjs="http://svgjs.dev/svgjs" width="1000" height="1000" viewBox="0 0 1000 1000"><rect width="1000" height="1000" fill="#ffffff"></rect><g transform="matrix(0.7,0,0,0.7,149.5757575757575,453.55630995208884)"><svg viewBox="0 0 396 53" data-background-color="#ffffff" preserveAspectRatio="xMidYMid meet" height="133" width="1000" xmlns="http://www.w3.org/2000/svg" xmlns:xlink="http://www.w3.org/1999/xlink"><g id="tight-bounds" transform="matrix(1,0,0,1,0.24000000000003752,-0.060520166065629155)"><svg viewBox="0 0 395.5199999999999 53.12104033213127" height="53.12104033213127" width="395.5199999999999"><g><svg viewBox="0 0 655.1810116101998 87.99528959999999" height="53.12104033213127" width="395.5199999999999"><g transform="matrix(1,0,0,1,259.6610116101998,11.741821230048238)"><svg viewBox="0 0 395.52 64.51164713990352" height="64.51164713990352" width="395.52"><g><svg viewBox="0 0 395.52 64.51164713990352" height="64.51164713990352" width="395.52"><g><svg viewBox="0 0 395.52 64.51164713990352" height="64.51164713990352" width="395.52"><g transform="matrix(1,0,0,1,0,0)"><svg width="395.52" viewBox="2.5 -35 217.63 35.5" height="64.51164713990352" data-palette-color="#041427"><path d="M13.6-25.15Q17.35-25.15 19.38-22.4 21.4-19.65 21.4-15L21.4-15 21.4 0 16.3 0 16.3-14.35Q16.3-17.6 15.33-19.23 14.35-20.85 12.3-20.85L12.3-20.85Q9.35-20.85 7.6-17.95L7.6-17.95 7.6 0 2.5 0 2.5-24.7 6.85-24.7 7.1-22.15Q8.2-23.55 9.88-24.35 11.55-25.15 13.6-25.15L13.6-25.15ZM39.45-24.7L44.55-24.7 44.55 0 40.15 0 39.9-2.5Q37.6 0.45 33.6 0.45L33.6 0.45Q29.75 0.45 27.85-2.08 25.95-4.6 25.95-9.15L25.95-9.15 25.95-24.7 31.05-24.7 31.05-9.8Q31.05-6.9 31.95-5.4 32.85-3.9 34.9-3.9L34.9-3.9Q37.65-3.9 39.45-6.75L39.45-6.75 39.45-24.7ZM74.15-25.15Q78.34-25.15 80.32-22.45 82.3-19.75 82.3-15L82.3-15 82.3 0 77.25 0 77.25-14.35Q77.25-17.65 76.3-19.23 75.34-20.8 73.09-20.8L73.09-20.8Q70.9-20.8 69.72-19.3 68.55-17.8 68.55-15L68.55-15 68.55 0 63.5 0 63.5-14.35Q63.5-17.6 62.52-19.2 61.55-20.8 59.55-20.8L59.55-20.8Q56.6-20.8 54.85-17.9L54.85-17.9 54.85 0 49.75 0 49.75-24.7 54-24.7 54.3-22.1Q55.4-23.55 57.05-24.35 58.7-25.15 60.7-25.15L60.7-25.15Q62.85-25.15 64.45-24.18 66.05-23.2 67-21.45L67-21.45Q68.05-23.2 69.87-24.18 71.7-25.15 74.15-25.15L74.15-25.15ZM97.44 0.5Q93.69 0.5 91.07-1.23 88.44-2.95 87.12-5.9 85.79-8.85 85.79-12.45L85.79-12.45Q85.79-16 87.02-18.9 88.24-21.8 90.62-23.48 92.99-25.15 96.29-25.15L96.29-25.15Q100.44-25.15 102.97-22.3 105.49-19.45 105.49-14.5L105.49-14.5Q105.49-13.4 105.24-11.8L105.24-11.8 90.99-11.8Q91.19-7.9 93.09-5.9 94.99-3.9 97.89-3.9L97.89-3.9Q99.54-3.9 101.22-4.33 102.89-4.75 104.24-5.55L104.24-5.55 104.54-1.05Q101.69 0.5 97.44 0.5L97.44 0.5ZM91.14-15.35L100.34-15.35Q100.34-17.8 99.32-19.3 98.29-20.8 96.14-20.8L96.14-20.8Q94.14-20.8 92.84-19.43 91.54-18.05 91.14-15.35L91.14-15.35ZM109.24 0L109.24-24.7 113.54-24.7 114.04-21.25Q115.59-23.3 116.94-24.23 118.29-25.15 119.94-25.15L119.94-25.15Q120.64-25.15 121.14-25L121.14-25 120.69-19.6Q119.79-19.8 119.14-19.8L119.14-19.8Q117.74-19.8 116.49-19.07 115.24-18.35 114.29-17.2L114.29-17.2 114.29 0 109.24 0ZM123.84-29.5L123.84-35 128.94-35 128.94-29.5 123.84-29.5ZM123.84 0L123.84-24.7 128.94-24.7 128.94 0 123.84 0ZM144.29 0.5Q140.54 0.5 137.94-1.18 135.34-2.85 134.04-5.75 132.74-8.65 132.74-12.25L132.74-12.25Q132.74-17.95 135.74-21.55 138.74-25.15 144.44-25.15L144.44-25.15Q147.44-25.15 149.64-24.1L149.64-24.1 149.04-19.8Q147.04-20.85 144.79-20.85L144.79-20.85Q141.54-20.85 139.74-18.57 137.94-16.3 137.94-12.35L137.94-12.35Q137.94-8.5 139.76-6.15 141.59-3.8 144.89-3.8L144.89-3.8Q147.14-3.8 149.14-4.85L149.14-4.85 149.64-0.6Q148.64-0.1 147.21 0.2 145.79 0.5 144.29 0.5L144.29 0.5ZM159.68 0.5Q157.53 0.5 155.76 0.03 153.98-0.45 152.33-1.4L152.33-1.4 152.88-6.2Q156.28-3.7 159.28-3.7L159.28-3.7Q161.03-3.7 162.01-4.4 162.98-5.1 162.98-6.45L162.98-6.45Q162.98-7.85 162.03-8.68 161.08-9.5 158.13-10.9L158.13-10.9Q155.23-12.25 153.91-13.88 152.58-15.5 152.58-18.2L152.58-18.2Q152.58-21.3 154.78-23.23 156.98-25.15 160.68-25.15L160.68-25.15Q164.33-25.15 167.08-23.45L167.08-23.45 166.53-18.9Q165.13-20 163.88-20.53 162.63-21.05 161.03-21.05L161.03-21.05Q159.43-21.05 158.48-20.35 157.53-19.65 157.53-18.4L157.53-18.4Q157.53-17.15 158.43-16.43 159.33-15.7 161.98-14.4L161.98-14.4Q165.18-12.9 166.58-11.23 167.98-9.55 167.98-6.85L167.98-6.85Q167.98-3.4 165.73-1.45 163.48 0.5 159.68 0.5L159.68 0.5ZM171.58-29.5L171.58-35 176.68-35 176.68-29.5 171.58-29.5ZM171.58 0L171.58-24.7 176.68-24.7 176.68 0 171.58 0ZM192.88-25.15Q196.63-25.15 198.65-22.4 200.68-19.65 200.68-15L200.68-15 200.68 0 195.58 0 195.58-14.35Q195.58-17.6 194.6-19.23 193.63-20.85 191.58-20.85L191.58-20.85Q188.63-20.85 186.88-17.95L186.88-17.95 186.88 0 181.78 0 181.78-24.7 186.13-24.7 186.38-22.15Q187.48-23.55 189.15-24.35 190.83-25.15 192.88-25.15L192.88-25.15ZM211.83 0.5Q209.68 0.5 207.9 0.03 206.13-0.45 204.48-1.4L204.48-1.4 205.03-6.2Q208.43-3.7 211.43-3.7L211.43-3.7Q213.18-3.7 214.15-4.4 215.13-5.1 215.13-6.45L215.13-6.45Q215.13-7.85 214.18-8.68 213.23-9.5 210.28-10.9L210.28-10.9Q207.38-12.25 206.05-13.88 204.73-15.5 204.73-18.2L204.73-18.2Q204.73-21.3 206.93-23.23 209.13-25.15 212.83-25.15L212.83-25.15Q216.48-25.15 219.23-23.45L219.23-23.45 218.68-18.9Q217.28-20 216.03-20.53 214.78-21.05 213.18-21.05L213.18-21.05Q211.58-21.05 210.63-20.35 209.68-19.65 209.68-18.4L209.68-18.4Q209.68-17.15 210.58-16.43 211.48-15.7 214.13-14.4L214.13-14.4Q217.33-12.9 218.73-11.23 220.13-9.55 220.13-6.85L220.13-6.85Q220.13-3.4 217.88-1.45 215.63 0.5 211.83 0.5L211.83 0.5Z" opacity="1" transform="matrix(1,0,0,1,0,0)" fill="#041427" class="undefined-text-0" data-fill-palette-color="primary" id="text-0"></path></svg></g></svg></g></svg></g></svg></g><g><svg viewBox="0 0 244.43135999999996 87.99528959999999" height="87.99528959999999" width="244.43135999999996"><g><svg xmlns="http://www.w3.org/2000/svg" xmlns:xlink="http://www.w3.org/1999/xlink" version="1.1" x="0" y="0" viewBox="0 32 100 36" enable-background="new 0 0 100 100" xml:space="preserve" height="87.99528959999999" width="244.43135999999996" class="icon-icon-0" data-fill-palette-color="accent" id="icon-0"><g fill="#111111" data-fill-palette-color="accent"><path d="M82 32H51c-9.925 0-18 7.851-18 17.5V51h10v-1.5c0-4.136 3.589-7.5 8-7.5h31c4.411 0 8 3.589 8 8 0 4.506-2.419 8-4.5 8H76c-2.761 0-5 2.238-5 5s2.239 5 5 5h9.5c7.995 0 14.5-8.075 14.5-18S91.925 32 82 32z" fill="#111111" data-fill-palette-color="accent"></path><path d="M57 50.5c0 4.136-3.589 7.5-8 7.5H18c-4.411 0-8-3.589-8-8 0-4.506 2.419-8 4.5-8H24c2.761 0 5-2.238 5-5s-2.239-5-5-5h-9.5C6.505 32 0 40.075 0 50s8.075 18 18 18h31c9.925 0 18-7.851 18-17.5V49H57V50.5z" fill="#111111" data-fill-palette-color="accent"></path></g></svg></g></svg></g></svg></g><defs></defs></svg><rect width="395.5199999999999" height="53.12104033213127" fill="none" stroke="none" visibility="hidden"></rect></g></svg></g></svg>